<svg width="1515px" height="360px" viewBox="0 0 1515 360" version="1.1" xmlns="http://www.w3.org/2000/svg" xmlns:xlink="http://www.w3.org/1999/xlink">
    <g id="Page-3" stroke="none" stroke-width="1" fill="none" fill-rule="evenodd">
        <rect id="Rectangle" fill="#EB5D49" x="0" y="0" width="1515" height="360"></rect>
        <path d="M185,152.021276 L306.0045,292 L427,152.023029 L371.200368,80.4401422 L305.99601,73 L240.799865,80.4380892 C232.852564,107.187825 224.867731,125.708462 216.845365,136 C208.823,146.291538 198.207878,151.631964 185,152.021276 Z" id="Path-3" stroke="#1D191D" stroke-width="10" fill="#EB5D49"></path>
        <path d="M174.451042,62 C190.36213,62 204.233388,70.8941222 211.292272,83.9741183 C213.10751,83.3464238 215.276493,83 217.839185,83 C228.332595,83 236.839185,91.5065898 236.839185,102 C236.839185,104.843218 236.214671,107.540574 235.095333,109.962374 C240.25288,111.389041 245.789759,113.179697 250.758765,115.61318 C258.988791,119.643689 275.188297,132.626908 276.382126,132.031895 C277.534871,131.457358 273.332403,116.539498 276.817607,104.233586 C280.631056,89.2106396 297.027251,63.8894145 329.586392,63.8894145 C335.557945,63.8894145 352.52201,62.4850698 368.4117,79.6477229 C377.123415,89.0573547 387.250612,102.947423 383.783459,120.386062 C383.016084,124.245705 375.297347,126.754277 371.964976,120.386062 C370.277317,106.124792 369.143038,99.8343993 362.743218,91.8560663 C348.3462,73.9080287 329.538279,75.8385744 324.727524,76.3613756 C319.916769,76.8841769 308.664818,79.948799 298.752427,90.3216065 C289.275745,100.238466 288.859187,115.685796 288.840877,121.186096 L288.840035,121.880173 C288.840035,135.210653 295.253367,147.091417 312.529815,165.461195 C315.004859,168.092871 351.839031,205.852047 351.839031,231.425688 C351.839031,256.743593 328.781606,299.674367 290.601582,300.53045 L289.439991,300.543452 L157.784224,300.543452 C154.941511,300.543452 154.453712,291.559488 161.876633,288.864825 C169.299553,286.170163 178.338398,286.480395 182.183924,286.480395 C185.792827,286.480395 187.64995,283.224156 185.251978,279.043162 C182.775786,274.725789 151.955671,253.309518 151.955671,213.536924 C151.955671,195.596912 174.064799,198.343893 178.338398,197.168828 C180.334809,196.619896 182.033398,190.732829 178.338398,190.732829 C174.643399,190.732829 176.622289,194.69545 147.228484,194.69545 C134.210467,194.69545 96.6498657,187.664842 91.3812414,186.476783 C87.8688251,185.684744 81.4590386,184.546003 72.1518818,183.060558 C62.7172939,182.151255 58,176.831239 58,167.100509 C58,157.369778 62.7172939,153.550639 72.1518818,155.643093 C79.5160888,159.083632 83.8139842,160.056481 85.0455682,158.56164 C86.8929442,156.319378 81.8594231,146.693886 86.112617,145.286027 C90.8970182,143.702331 92.5266177,162.452015 97.1680297,164.42357 C101.801828,166.391892 125.994957,169.117849 141.963816,167.882858 C162.506183,166.294163 181.288472,155.784864 181.288472,150.865099 C181.288472,145.945334 176.613604,145.286624 174.451042,145.286027 C157.511463,145.286027 142.930335,135.204912 136.398581,120.724243 C135.891229,120.904867 135.370131,121 134.839185,121 C124.345775,121 115.839185,112.49341 115.839185,102 C115.839185,91.5065898 124.345775,83 134.839185,83 C135.951285,83.0545754 136.963249,83.2620369 137.880522,83.6023155 C144.97183,70.7264183 158.690674,62 174.451042,62 Z M304.420946,178 C302.312319,179.427025 308.235126,199.489606 306.023662,228.403584 C304.144695,252.970297 296.513306,281.135895 302.8255,282.291742 C316.529022,284.80104 339.814974,250.404077 339.079481,231.201543 C338.343988,211.999009 306.529572,176.572975 304.420946,178 Z M186.665633,85 L160.665633,85 L160.665493,85.0239809 C160.39209,85.0080676 160.116579,85 159.839185,85 C152.107199,85 145.839185,91.2680135 145.839185,99 C145.839185,106.731986 152.107199,113 159.839185,113 C160.116643,113 160.392216,112.991929 160.665681,112.976008 L160.664427,117.253346 C160.130269,118.735522 159.839185,120.333768 159.839185,122 C159.839185,129.731986 166.107199,136 173.839185,136 C181.571172,136 187.839185,129.731986 187.839185,122 C187.839185,120.001918 187.420609,118.1016 186.666361,116.381949 L186.664681,112.951428 C187.051909,112.983596 187.443631,113 187.839185,113 C195.571172,113 201.839185,106.731986 201.839185,99 C201.839185,91.2680135 195.571172,85 187.839185,85 C187.443969,85 187.052578,85.0163763 186.665653,85.0484875 L186.665633,85 Z M134.165633,110 C131.833067,104.641004 131.833067,96.7908169 134.165633,93 C129.471213,93 125.665633,96.8055796 125.665633,101.5 C125.665633,106.19442 129.471213,110 134.165633,110 Z M217.591931,103.198675 C219.981273,106.303944 222.734524,106.022526 225.134075,106.022526 C227.198814,97.1478187 222.6575,94.014757 215.894726,94.014757 C217.591931,95.7195308 215.202589,100.093406 217.591931,103.198675 Z M159.339185,104 C162.376751,104 164.839185,101.537566 164.839185,98.5 C164.839185,95.4624339 162.376751,93 159.339185,93 C156.301619,93 153.839185,95.4624339 153.839185,98.5 C153.839185,101.537566 156.301619,104 159.339185,104 Z M189.339185,104 C192.376751,104 194.839185,101.537566 194.839185,98.5 C194.839185,95.4624339 192.376751,93 189.339185,93 C186.301619,93 183.839185,95.4624339 183.839185,98.5 C183.839185,101.537566 186.301619,104 189.339185,104 Z M169.339185,109 C170.719897,109 171.839185,107.880712 171.839185,106.5 C171.839185,105.119288 170.719897,104 169.339185,104 C167.958473,104 166.839185,105.119288 166.839185,106.5 C166.839185,107.880712 167.958473,109 169.339185,109 Z M180.339185,109 C181.719897,109 182.839185,107.880712 182.839185,106.5 C182.839185,105.119288 181.719897,104 180.339185,104 C178.958473,104 177.839185,105.119288 177.839185,106.5 C177.839185,107.880712 178.958473,109 180.339185,109 Z M173.839185,130 C178.809748,130 182.839185,125.970563 182.839185,121 C177.887124,121 167.270454,121 164.839185,121 C164.839185,125.970563 168.868622,130 173.839185,130 Z" id="Shape" fill="#1D191D" transform="translate(221.240818, 181.271726) scale(-1, 1) translate(-221.240818, -181.271726) "></path>
        <text id="RubyChimp.com" font-family="ArialRoundedMTBold, Arial Rounded MT Bold" font-size="120" font-weight="normal" fill="#1D1E1F">
            <tspan x="485" y="220">RubyChimp.com</tspan>
        </text>
    </g>
</svg>
